<?xml version="1.0" encoding="utf-8"?>
<!-- Generator: Adobe Illustrator 19.2.1, SVG Export Plug-In . SVG Version: 6.00 Build 0)  -->
<svg version="1.1" id="layer" xmlns="http://www.w3.org/2000/svg" xmlns:xlink="http://www.w3.org/1999/xlink" x="0px" y="0px"
	 viewBox="0 0 652 652" style="enable-background:new 0 0 652 652;" xml:space="preserve">
<style type="text/css">
	.st0{fill:#1D1D1D;}
	.st1{fill:#5E9749;}
</style>
<g id="layer1" transform="translate(-1.823066,-286.25191)">
	<g id="g3005" transform="matrix(1.25,0,0,-1.25,174.72932,387.60878)">
		<path id="path3007" class="st0" d="M54.7-207c-4.2-2.5-8.6-3.9-13-3.9c-8,0-14.8,4.6-14.8,15.4v27.5h-7.5v8.6h7.5v14.5h11.4v-14.5
			h15.6v-8.6H38.2v-25.4c0-5.5,2.1-7.2,5.7-7.2c2.4,0,4.9,0.8,8,2.3L54.7-207z"/>
	</g>
	<g id="g3009" transform="matrix(1.25,0,0,-1.25,236.10269,357.81203)">
		<path id="path3011" class="st0" d="M66.6-201.3v-33H55.1v29.8c0,8-4.8,12.8-12.7,12.8c-9.5-0.1-15.1-7.2-15.1-16.5v-26.1H15.8
			v73.9h11.5v-31.3c3.8,7.5,10.6,10.8,19.6,10.8C59.2-180.9,66.6-188.6,66.6-201.3"/>
	</g>
	<g id="g3013" transform="matrix(1.25,0,0,-1.25,285.68694,360.32066)">
		<path id="path3015" class="st0" d="M76.1-201.8C75.7-193.2,70-188,61.4-188c-8.4,0-14.2-5.3-15.5-13.7H76.1z M86.1-210.1H46
			c1.8-8.2,8.1-13.2,16.4-13.2c5.8,0,11.1,2.2,14.9,6.2l6.1-6.5c-5.2-5.7-12.7-9-21.9-9c-16.3,0-27.1,10.9-27.1,26.8
			c0,16,11.1,26.9,26.8,27C79.9-178.8,87.5-191,86.1-210.1"/>
	</g>
	<g id="g3017" transform="matrix(1.25,0,0,-1.25,319.04568,333.33453)">
		<path id="path3019" class="st1" d="M82.5-196.6v-6.3h13.8v-8.6H82.5v-42.4H71.2v42.4h-7v8.6h7v5.2c0,12.4,9.1,18.2,18.2,18.2
			c4.3,0,8.6-1.2,12-3.7l-4.4-8.8c-2.2,1.6-4.9,2.5-7.3,2.5C85.8-189.4,82.5-191.6,82.5-196.6"/>
	</g>
	<g id="g3021" transform="matrix(1.25,0,0,-1.25,345.32868,364.43441)">
		<path id="path3023" class="st1" d="M87.6-202.6c0-10.3,6.7-17.2,16.2-17.2c9.5,0,16.1,7,16.1,17.2c0,10.2-6.7,17.1-16.1,17.1
			C94.3-185.4,87.6-192.4,87.6-202.6 M131.4-202.4c0-15.9-11.3-26.9-27.6-26.9c-16.4,0-27.7,11-27.7,26.9c0,16,11.3,26.9,27.7,26.9
			C120.2-175.6,131.4-186.4,131.4-202.4"/>
	</g>
	<g id="g3025" transform="matrix(1.25,0,0,-1.25,409.33628,348.28328)">
		<path id="path3027" class="st1" d="M100-199.4c3.6,7.2,10,11,18.3,11v-11c-10.7,0.6-17.4-5.7-18.3-14.7v-27.7H88.5v53H100V-199.4z
			"/>
	</g>
	<g id="g3029" transform="matrix(1.25,0,0,-1.25,446.58358,376.07254)">
		<path id="path3031" class="st1" d="M107.1-204.8v-14.8H95.7v73.9h11.5v-44.6l23.4,23.7h13.1l-19.6-20.5l21.1-32.5h-13.5
			l-15.5,24.3L107.1-204.8z"/>
	</g>
	<g id="g3033" transform="matrix(1.25,0,0,-1.25,156.33644,416.44429)">
		<path id="path3035" class="st0" d="M51.2-212.6c-3.3,0.1-7.1-0.5-7.1-3.8c0-2,1.3-2.9,2.9-2.9c2.2,0,3.6,1.4,4,2.8
			c0.1,0.3,0.2,0.7,0.2,1V-212.6z M51.6-221.1l-0.2,2.1h-0.1c-0.9-1.3-2.7-2.5-5.1-2.5c-3.4,0-5.1,2.4-5.1,4.8c0,4,3.6,6.3,10.1,6.2
			v0.3c0,1.4-0.4,3.9-3.8,3.9c-1.6,0-3.2-0.5-4.4-1.2l-0.7,2c1.4,0.9,3.4,1.5,5.5,1.5c5.1,0,6.4-3.5,6.4-6.9v-6.3
			c0-1.5,0.1-2.9,0.3-4C54.4-221.1,51.6-221.1,51.6-221.1z"/>
	</g>
	<g id="g3037" transform="matrix(1.25,0,0,-1.25,175.75781,404.14016)">
		<path id="path3039" class="st0" d="M54.9-210.2h-7.1v2.6h17.3v-2.6H58V-231h-3V-210.2z"/>
	</g>
	<g id="g3041" transform="matrix(1.25,0,0,-1.25,187.43806,413.44678)">
		<path id="path3043" class="st0" d="M57.2-212c0,2,0,3.7-0.1,5.2h2.7l0.1-3.3h0.1c0.8,2.2,2.6,3.7,4.6,3.7c0.3,0,0.6,0,0.9-0.1
			v-2.9c-0.3,0.1-0.6,0.1-1,0.1c-2.1,0-3.7-1.6-4.1-3.9c-0.1-0.4-0.1-0.9-0.1-1.4v-8.9h-3V-212z"/>
	</g>
	<path id="path3045" class="st0" d="M273.8,671.9h3.8v20.9h-3.8V671.9z M278.1,666c0,1.3-0.9,2.3-2.4,2.3c-1.3,0-2.3-1-2.3-2.3
		c0-1.3,1-2.4,2.4-2.4C277.2,663.7,278.1,664.7,278.1,666"/>
	<g id="g3047" transform="matrix(1.25,0,0,-1.25,211.14531,418.18741)">
		<path id="path3049" class="st0" d="M61.7-212.9c0-0.5,0.1-0.9,0.1-1.2c0.6-2.1,2.4-3.6,4.6-3.6c3.2,0,5.1,2.6,5.1,6.5
			c0,3.4-1.8,6.2-5,6.2c-2.1,0-4-1.5-4.6-3.8c-0.1-0.4-0.2-0.8-0.2-1.2V-212.9z M58.7-208.4c0,2.1-0.1,3.9-0.1,5.5h2.7l0.1-2.9h0.1
			c1.2,2,3.2,3.3,6,3.3c4,0,7.1-3.4,7.1-8.5c0-6-3.7-9-7.6-9c-2.2,0-4.2,1-5.2,2.6h-0.1v-9.1h-3C58.7-226.6,58.7-208.4,58.7-208.4z"
			/>
	</g>
	<g id="g3051" transform="matrix(1.25,0,0,-1.25,240.04556,415.29379)">
		<path id="path3053" class="st0" d="M67.3-212.4l-2.3,6.7c-0.5,1.5-0.9,2.9-1.2,4.3h-0.1c-0.3-1.4-0.7-2.8-1.2-4.2l-2.3-6.7H67.3z
			 M59.7-214.7l-2.4-7.3h-3.1l7.9,23.3h3.6l8-23.3h-3.2l-2.5,7.3C67.9-214.7,59.7-214.7,59.7-214.7z"/>
	</g>
	<g id="g3055" transform="matrix(1.25,0,0,-1.25,261.34856,415.05016)">
		<path id="path3057" class="st0" d="M71.4-212.3c0,0.4,0,0.9-0.1,1.3c-0.5,1.9-2.1,3.5-4.4,3.5c-3.1,0-5-2.8-5-6.5
			c0-3.4,1.7-6.2,4.9-6.2c2,0,3.9,1.4,4.5,3.6c0.1,0.4,0.1,0.8,0.1,1.3V-212.3z M74.5-197.7v-20.2c0-1.5,0-3.2,0.1-4.3h-2.7
			l-0.1,2.9h-0.1c-0.9-1.9-3-3.3-5.7-3.3c-4,0-7.2,3.4-7.2,8.5c0,5.6,3.4,9,7.5,9c2.6,0,4.3-1.2,5.1-2.6h0.1v10
			C71.4-197.7,74.5-197.7,74.5-197.7z"/>
	</g>
	<g id="g3059" transform="matrix(1.25,0,0,-1.25,271.18257,408.18316)">
		<path id="path3061" class="st0" d="M73.3-211l3.3-9.4c0.6-1.5,1-2.9,1.4-4.3h0.1c0.4,1.4,0.9,2.8,1.4,4.3l3.3,9.4h3.2l-6.6-16.7
			h-2.9L70.1-211H73.3z"/>
	</g>
	<path id="path3063" class="st0" d="M382.8,671.9h3.8v20.9h-3.8V671.9z M387,666c0,1.3-0.9,2.3-2.4,2.3c-1.3,0-2.3-1-2.3-2.3
		c0-1.3,1-2.4,2.4-2.4C386.1,663.7,387,664.7,387,666"/>
	<g id="g3065" transform="matrix(1.25,0,0,-1.25,295.48318,421.91729)">
		<path id="path3067" class="st0" d="M78-213.6c0.9-0.6,2.5-1.2,4-1.2c2.2,0,3.3,1.1,3.3,2.5c0,1.5-0.9,2.2-3.1,3.1
			c-3,1.1-4.4,2.7-4.4,4.7c0,2.7,2.2,4.9,5.8,4.9c1.7,0,3.2-0.5,4.1-1l-0.8-2.2c-0.7,0.4-1.9,1-3.4,1c-1.8,0-2.8-1-2.8-2.3
			c0-1.4,1-2,3.2-2.8c2.9-1.1,4.4-2.6,4.4-5.1c0-2.9-2.3-5-6.3-5c-1.8,0-3.5,0.5-4.7,1.1L78-213.6z"/>
	</g>
	<g id="g3069" transform="matrix(1.25,0,0,-1.25,312.07858,416.65429)">
		<path id="path3071" class="st0" d="M81.2-212.6c0-3.7,2.1-6.4,5.1-6.4c2.9,0,5.1,2.7,5.1,6.5c0,2.8-1.4,6.4-5,6.4
			C82.8-206.1,81.2-209.4,81.2-212.6 M94.5-212.4c0-6.2-4.3-8.9-8.3-8.9c-4.5,0-8,3.3-8,8.6c0,5.6,3.7,8.9,8.3,8.9
			C91.2-203.8,94.5-207.3,94.5-212.4"/>
	</g>
	<g id="g3073" transform="matrix(1.25,0,0,-1.25,329.82518,413.44678)">
		<path id="path3075" class="st0" d="M84.6-212c0,2,0,3.7-0.1,5.2h2.7l0.1-3.3h0.1c0.8,2.2,2.6,3.7,4.6,3.7c0.3,0,0.6,0,0.9-0.1
			v-2.9c-0.3,0.1-0.6,0.1-1,0.1c-2.1,0-3.7-1.6-4.1-3.9c-0.1-0.4-0.1-0.9-0.1-1.4v-8.9h-3V-212z"/>
	</g>
	<g id="g3077" transform="matrix(1.25,0,0,-1.25,361.61898,424.42766)">
		<path id="path3079" class="st0" d="M90.8-214.1c-0.8-0.4-2.6-1-4.8-1c-5.1,0-8.3,3.4-8.3,8.5c0,5.2,3.5,8.9,9,8.9
			c1.8,0,3.4-0.4,4.2-0.9l-0.7-2.4c-0.7,0.4-1.9,0.8-3.5,0.8c-3.8,0-5.9-2.8-5.9-6.3c0-3.9,2.5-6.3,5.8-6.3c1.7,0,2.9,0.5,3.7,0.8
			L90.8-214.1z"/>
	</g>
	<g id="g3081" transform="matrix(1.25,0,0,-1.25,367.37398,416.65429)">
		<path id="path3083" class="st0" d="M91.9-212.6c0-3.7,2.1-6.4,5.1-6.4c2.9,0,5.1,2.7,5.1,6.5c0,2.8-1.4,6.4-5,6.4
			C93.4-206.1,91.9-209.4,91.9-212.6 M105.2-212.4c0-6.2-4.3-8.9-8.3-8.9c-4.5,0-8,3.3-8,8.6c0,5.6,3.7,8.9,8.3,8.9
			C101.9-203.8,105.2-207.3,105.2-212.4"/>
	</g>
	<g id="g3085" transform="matrix(1.25,0,0,-1.25,385.12058,412.74978)">
		<path id="path3087" class="st0" d="M95.3-211.9c0,1.7,0,3.1-0.1,4.5h2.7L98-210h0.1c0.9,1.6,2.5,3.1,5.3,3.1c2.3,0,4-1.4,4.7-3.4
			h0.1c0.5,0.9,1.2,1.7,1.9,2.2c1,0.8,2.1,1.2,3.7,1.2c2.2,0,5.5-1.5,5.5-7.3v-9.9h-3v9.5c0,3.2-1.2,5.2-3.6,5.2
			c-1.7,0-3.1-1.3-3.6-2.8c-0.1-0.4-0.2-1-0.2-1.5v-10.3h-3v10c0,2.7-1.2,4.6-3.5,4.6c-1.9,0-3.3-1.5-3.8-3c-0.2-0.4-0.2-1-0.2-1.5
			v-10.1h-3V-211.9z"/>
	</g>
	<g id="g3089" transform="matrix(1.25,0,0,-1.25,417.71818,418.18741)">
		<path id="path3091" class="st0" d="M101.6-212.9c0-0.5,0.1-0.9,0.1-1.2c0.6-2.1,2.4-3.6,4.6-3.6c3.2,0,5.1,2.6,5.1,6.5
			c0,3.4-1.8,6.2-5,6.2c-2.1,0-4-1.5-4.6-3.8c-0.1-0.4-0.2-0.8-0.2-1.2V-212.9z M98.6-208.4c0,2.1-0.1,3.9-0.1,5.5h2.7l0.1-2.9h0.1
			c1.2,2,3.2,3.3,6,3.3c4,0,7.1-3.4,7.1-8.5c0-6-3.7-9-7.6-9c-2.2,0-4.2,1-5.2,2.6h-0.1v-9.1h-3C98.6-226.6,98.6-208.4,98.6-208.4z"
			/>
	</g>
	<g id="g3093" transform="matrix(1.25,0,0,-1.25,443.90108,416.44429)">
		<path id="path3095" class="st0" d="M106.6-212.6c-3.3,0.1-7.1-0.5-7.1-3.8c0-2,1.3-2.9,2.9-2.9c2.2,0,3.6,1.4,4,2.8
			c0.1,0.3,0.2,0.7,0.2,1V-212.6z M107.1-221.1l-0.2,2.1h-0.1c-0.9-1.3-2.7-2.5-5.1-2.5c-3.4,0-5.1,2.4-5.1,4.8
			c0,4,3.6,6.3,10.1,6.2v0.3c0,1.4-0.4,3.9-3.8,3.9c-1.6,0-3.2-0.5-4.4-1.2l-0.7,2c1.4,0.9,3.4,1.5,5.5,1.5c5.1,0,6.4-3.5,6.4-6.9
			v-6.3c0-1.5,0.1-2.9,0.3-4C109.8-221.1,107.1-221.1,107.1-221.1z"/>
	</g>
	<g id="g3097" transform="matrix(1.25,0,0,-1.25,452.30508,412.74978)">
		<path id="path3099" class="st0" d="M108.2-211.9c0,1.7,0,3.1-0.1,4.5h2.7l0.2-2.8h0.1c0.8,1.6,2.8,3.1,5.5,3.1
			c2.3,0,5.9-1.4,5.9-7.1v-10h-3v9.7c0,2.7-1,4.9-3.9,4.9c-2,0-3.6-1.4-4.1-3.1c-0.1-0.4-0.2-0.9-0.2-1.4v-10.1h-3V-211.9z"/>
	</g>
	<g id="g3101" transform="matrix(1.25,0,0,-1.25,472.80608,408.18316)">
		<path id="path3103" class="st0" d="M112.2-211l3.7-9.9c0.4-1.1,0.8-2.4,1.1-3.4h0.1c0.3,1,0.7,2.3,1.1,3.5l3.3,9.8h3.2l-4.6-11.9
			c-2.2-5.7-3.7-8.7-5.7-10.5c-1.5-1.3-3-1.8-3.7-2l-0.8,2.6c0.8,0.2,1.8,0.7,2.7,1.5c0.8,0.7,1.9,1.8,2.6,3.4
			c0.1,0.3,0.2,0.6,0.2,0.7c0,0.2-0.1,0.4-0.2,0.8l-6.2,15.4H112.2z"/>
	</g>
	<path id="path3105" class="st1" d="M102.3,590h6.5v-69.4h-6.5V590z"/>
	<g id="g3107" transform="matrix(1.25,0,0,-1.25,79.426556,287.68516)">
		<path id="path3109" class="st1" d="M36.4-187.8l-5.2,0.7v-54l5.2,1V-187.8z"/>
	</g>
	<g id="g3111" transform="matrix(1.25,0,0,-1.25,53.462316,286.95941)">
		<path id="path3113" class="st1" d="M31.4-187.6l-5.2-0.7v-52.2l5.2-1V-187.6z"/>
	</g>
	<g id="g3115" transform="matrix(1.25,0,0,-1.25,57.698066,421.25441)">
		<path id="path3117" class="st1" d="M32.2-213.5c0.2,3.4,0.4,9,0.4,10.8c0,1.8,0.1,1.9-0.4,7.5c-0.4,5.5-1.1,7.6-1.5,9.8
			c-0.3,2.2-1,4.8-2.1,8.1c-1,3.3-1.9,5.1-3.3,8.3c-1.4,3.2-4,7.6-6.4,12c-2.3,4.3-4.5,9.4-5.4,14.4c-1,5.7-0.9,12.3-0.7,16
			c0.2,3.7,0.8,13.1,1.2,18c-22.2-8.7-37.5-29.1-37.5-53.2c0-29.9,24.1-54.6,55.1-57.6C31.8-219.6,32-216.9,32.2-213.5"/>
	</g>
	<g id="g3119" transform="matrix(1.25,0,0,-1.25,69.936316,421.25441)">
		<path id="path3121" class="st1" d="M34.5-213.5c-0.2,3.4-0.4,9-0.4,10.8c0,1.8-0.1,1.9,0.4,7.5c0.4,5.5,1.1,7.6,1.5,9.8
			c0.3,2.2,1,4.8,2.1,8.1c1,3.3,1.9,5.1,3.3,8.3c1.4,3.2,4,7.6,6.4,12c2.3,4.3,4.5,9.4,5.4,14.4c1,5.7,0.9,12.3,0.7,16
			c-0.2,3.7-0.8,13.1-1.2,18c22.2-8.7,37.5-29.1,37.5-53.2c0-29.9-24.1-54.6-55.1-57.6C34.9-219.6,34.7-216.9,34.5-213.5"/>
	</g>
</g>
</svg>
